<svg xmlns="http://www.w3.org/2000/svg" width="41" height="38" fill="none" viewBox="0 0 41 38"><path fill="#000" fill-opacity=".5" d="M5.56991 0C2.66495 0 0.765625 1.90655 0.765625 4.41245C0.765625 6.863 2.60837 8.82393 5.45844 8.82393H5.51357C8.47535 8.82393 10.3186 6.863 10.3186 4.41245C10.2632 1.90655 8.47535 0 5.56991 0Z"/><path fill="#000" fill-opacity=".5" d="M1.26953 12.3105H9.76196V37.8471H1.26953V12.3105Z"/><path fill="#000" fill-opacity=".5" d="M30.6031 11.7109C26.0217 11.7109 22.9497 16.0137 22.9497 16.0137V12.3103H14.457V37.8468H22.9492V23.5862C22.9492 22.8228 23.0046 22.0605 23.229 21.5146C23.8429 19.9901 25.24 18.4108 27.5862 18.4108C30.6592 18.4108 31.8882 20.7526 31.8882 24.1856V37.8468H40.38V23.2046C40.38 15.3609 36.1901 11.7109 30.6031 11.7109Z"/></svg>