<svg width="298" height="115" viewBox="0 0 298 115" fill="none" xmlns="http://www.w3.org/2000/svg">
<g filter="url(#filter0_d)">
<path d="M20 17H243C262.33 17 278 32.67 278 52V92H55C35.67 92 20 76.33 20 57V17Z" fill="url(#paint0_linear)"/>
<path d="M20.5 17.5H243C262.054 17.5 277.5 32.9462 277.5 52V91.5H55C35.9462 91.5 20.5 76.0538 20.5 57V17.5Z" stroke="url(#paint1_linear)"/>
</g>
<path d="M82.3164 64V46.8672H85.9492V61H92.8984V64H82.3164ZM101.031 53.1953C100.273 53.1953 99.6797 53.4375 99.25 53.9219C98.8203 54.3984 98.5742 55.0781 98.5117 55.9609H103.527C103.512 55.0781 103.281 54.3984 102.836 53.9219C102.391 53.4375 101.789 53.1953 101.031 53.1953ZM101.535 64.2344C99.4258 64.2344 97.7773 63.6523 96.5898 62.4883C95.4023 61.3242 94.8086 59.6758 94.8086 57.543C94.8086 55.3477 95.3555 53.6523 96.4492 52.457C97.5508 51.2539 99.0703 50.6523 101.008 50.6523C102.859 50.6523 104.301 51.1797 105.332 52.2344C106.363 53.2891 106.879 54.7461 106.879 56.6055V58.3398H98.4297C98.4688 59.3555 98.7695 60.1484 99.332 60.7188C99.8945 61.2891 100.684 61.5742 101.699 61.5742C102.488 61.5742 103.234 61.4922 103.938 61.3281C104.641 61.1641 105.375 60.9023 106.141 60.543V63.3086C105.516 63.6211 104.848 63.8516 104.137 64C103.426 64.1562 102.559 64.2344 101.535 64.2344ZM118.105 64L117.414 62.2188H117.32C116.719 62.9766 116.098 63.5039 115.457 63.8008C114.824 64.0898 113.996 64.2344 112.973 64.2344C111.715 64.2344 110.723 63.875 109.996 63.1562C109.277 62.4375 108.918 61.4141 108.918 60.0859C108.918 58.6953 109.402 57.6719 110.371 57.0156C111.348 56.3516 112.816 55.9844 114.777 55.9141L117.051 55.8438V55.2695C117.051 53.9414 116.371 53.2773 115.012 53.2773C113.965 53.2773 112.734 53.5938 111.32 54.2266L110.137 51.8125C111.645 51.0234 113.316 50.6289 115.152 50.6289C116.91 50.6289 118.258 51.0117 119.195 51.7773C120.133 52.543 120.602 53.707 120.602 55.2695V64H118.105ZM117.051 57.9297L115.668 57.9766C114.629 58.0078 113.855 58.1953 113.348 58.5391C112.84 58.8828 112.586 59.4062 112.586 60.1094C112.586 61.1172 113.164 61.6211 114.32 61.6211C115.148 61.6211 115.809 61.3828 116.301 60.9062C116.801 60.4297 117.051 59.7969 117.051 59.0078V57.9297ZM131.605 50.6523C132.09 50.6523 132.492 50.6875 132.812 50.7578L132.543 54.1094C132.254 54.0312 131.902 53.9922 131.488 53.9922C130.348 53.9922 129.457 54.2852 128.816 54.8711C128.184 55.457 127.867 56.2773 127.867 57.332V64H124.293V50.8984H127L127.527 53.1016H127.703C128.109 52.3672 128.656 51.7773 129.344 51.332C130.039 50.8789 130.793 50.6523 131.605 50.6523ZM147.285 64H143.711V56.3477C143.711 55.4023 143.543 54.6953 143.207 54.2266C142.871 53.75 142.336 53.5117 141.602 53.5117C140.602 53.5117 139.879 53.8477 139.434 54.5195C138.988 55.1836 138.766 56.2891 138.766 57.8359V64H135.191V50.8984H137.922L138.402 52.5742H138.602C139 51.9414 139.547 51.4648 140.242 51.1445C140.945 50.8164 141.742 50.6523 142.633 50.6523C144.156 50.6523 145.312 51.0664 146.102 51.8945C146.891 52.7148 147.285 53.9023 147.285 55.457V64ZM168.93 64H165.355V56.3477C165.355 55.4023 165.195 54.6953 164.875 54.2266C164.562 53.75 164.066 53.5117 163.387 53.5117C162.473 53.5117 161.809 53.8477 161.395 54.5195C160.98 55.1914 160.773 56.2969 160.773 57.8359V64H157.199V50.8984H159.93L160.41 52.5742H160.609C160.961 51.9727 161.469 51.5039 162.133 51.168C162.797 50.8242 163.559 50.6523 164.418 50.6523C166.379 50.6523 167.707 51.293 168.402 52.5742H168.719C169.07 51.9648 169.586 51.4922 170.266 51.1562C170.953 50.8203 171.727 50.6523 172.586 50.6523C174.07 50.6523 175.191 51.0352 175.949 51.8008C176.715 52.5586 177.098 53.7773 177.098 55.457V64H173.512V56.3477C173.512 55.4023 173.352 54.6953 173.031 54.2266C172.719 53.75 172.223 53.5117 171.543 53.5117C170.668 53.5117 170.012 53.8242 169.574 54.4492C169.145 55.0742 168.93 56.0664 168.93 57.4258V64ZM183.625 57.4258C183.625 58.7227 183.836 59.7031 184.258 60.3672C184.688 61.0312 185.383 61.3633 186.344 61.3633C187.297 61.3633 187.98 61.0352 188.395 60.3789C188.816 59.7148 189.027 58.7305 189.027 57.4258C189.027 56.1289 188.816 55.1562 188.395 54.5078C187.973 53.8594 187.281 53.5352 186.32 53.5352C185.367 53.5352 184.68 53.8594 184.258 54.5078C183.836 55.1484 183.625 56.1211 183.625 57.4258ZM192.684 57.4258C192.684 59.5586 192.121 61.2266 190.996 62.4297C189.871 63.6328 188.305 64.2344 186.297 64.2344C185.039 64.2344 183.93 63.9609 182.969 63.4141C182.008 62.8594 181.27 62.0664 180.754 61.0352C180.238 60.0039 179.98 58.8008 179.98 57.4258C179.98 55.2852 180.539 53.6211 181.656 52.4336C182.773 51.2461 184.344 50.6523 186.367 50.6523C187.625 50.6523 188.734 50.9258 189.695 51.4727C190.656 52.0195 191.395 52.8047 191.91 53.8281C192.426 54.8516 192.684 56.0508 192.684 57.4258ZM202.949 50.6523C203.434 50.6523 203.836 50.6875 204.156 50.7578L203.887 54.1094C203.598 54.0312 203.246 53.9922 202.832 53.9922C201.691 53.9922 200.801 54.2852 200.16 54.8711C199.527 55.457 199.211 56.2773 199.211 57.332V64H195.637V50.8984H198.344L198.871 53.1016H199.047C199.453 52.3672 200 51.7773 200.688 51.332C201.383 50.8789 202.137 50.6523 202.949 50.6523ZM211.961 53.1953C211.203 53.1953 210.609 53.4375 210.18 53.9219C209.75 54.3984 209.504 55.0781 209.441 55.9609H214.457C214.441 55.0781 214.211 54.3984 213.766 53.9219C213.32 53.4375 212.719 53.1953 211.961 53.1953ZM212.465 64.2344C210.355 64.2344 208.707 63.6523 207.52 62.4883C206.332 61.3242 205.738 59.6758 205.738 57.543C205.738 55.3477 206.285 53.6523 207.379 52.457C208.48 51.2539 210 50.6523 211.938 50.6523C213.789 50.6523 215.23 51.1797 216.262 52.2344C217.293 53.2891 217.809 54.7461 217.809 56.6055V58.3398H209.359C209.398 59.3555 209.699 60.1484 210.262 60.7188C210.824 61.2891 211.613 61.5742 212.629 61.5742C213.418 61.5742 214.164 61.4922 214.867 61.3281C215.57 61.1641 216.305 60.9023 217.07 60.543V63.3086C216.445 63.6211 215.777 63.8516 215.066 64C214.355 64.1562 213.488 64.2344 212.465 64.2344Z" fill="#39667F"/>
<defs>
<filter id="filter0_d" x="0" y="0" width="298" height="115" filterUnits="userSpaceOnUse" color-interpolation-filters="sRGB">
<feFlood flood-opacity="0" result="BackgroundImageFix"/>
<feColorMatrix in="SourceAlpha" type="matrix" values="0 0 0 0 0 0 0 0 0 0 0 0 0 0 0 0 0 0 127 0"/>
<feOffset dy="3"/>
<feGaussianBlur stdDeviation="10"/>
<feColorMatrix type="matrix" values="0 0 0 0 0.329583 0 0 0 0 0.564655 0 0 0 0 0.7 0 0 0 0.23 0"/>
<feBlend mode="normal" in2="BackgroundImageFix" result="effect1_dropShadow"/>
<feBlend mode="normal" in="SourceGraphic" in2="effect1_dropShadow" result="shape"/>
</filter>
<linearGradient id="paint0_linear" x1="77" y1="44" x2="251.5" y2="79.5" gradientUnits="userSpaceOnUse">
<stop stop-color="white"/>
<stop offset="1" stop-color="#F7F7F7"/>
</linearGradient>
<linearGradient id="paint1_linear" x1="149" y1="-6" x2="149" y2="133" gradientUnits="userSpaceOnUse">
<stop/>
<stop offset="0.0001" stop-color="#F4F4F4"/>
<stop offset="1" stop-color="#BDD9F2"/>
</linearGradient>
</defs>
</svg>
