<svg width="42" height="34" viewBox="0 0 42 34" fill="none" xmlns="http://www.w3.org/2000/svg">
<path d="M0.727096 30.2423C4.56487 32.7009 9.03133 34 13.6429 34C20.3961 34 26.5846 31.3809 31.07 26.6258C35.3621 22.0746 37.7231 15.9594 37.6057 9.75343C39.2327 8.34798 41.1464 5.66438 41.1464 3.04879C41.1464 2.04614 40.0686 1.40968 39.1947 1.92059C37.6661 2.82733 36.2723 3.06448 34.8387 2.65819C31.9112 -0.222453 27.5535 -0.829271 23.8816 1.16904C20.6725 2.91277 18.8883 6.1038 19.0489 9.59126C13.6273 8.92341 8.61854 6.17878 5.1262 1.91362C4.55278 1.21787 3.46466 1.29982 3.00869 2.08799C1.32642 4.99653 1.3437 8.36716 2.80661 11.0891C2.11056 11.2129 1.68049 11.8041 1.68049 12.444C1.68049 15.1799 2.89988 17.6944 4.86367 19.4102C4.49751 19.7659 4.37661 20.2943 4.53205 20.7651C5.39564 23.3842 7.3508 25.4313 9.79474 26.4566C7.13663 27.7383 4.19698 28.1655 1.58032 27.8411C0.226217 27.6563 -0.442198 29.4942 0.727096 30.2423ZM13.997 26.9048C14.9659 26.1532 14.4512 24.5873 13.2353 24.5612C11.0936 24.5159 9.1436 23.4504 7.9294 21.7747C8.51491 21.7363 9.12115 21.6457 9.69802 21.4887C11.0124 21.1295 10.9502 19.2149 9.61512 18.9446C7.1919 18.4529 5.29028 16.6708 4.57696 14.3761C5.2281 14.5382 5.89134 14.6289 6.55284 14.6411C7.86377 14.6481 8.35946 12.9514 7.29035 12.2417C4.88094 10.6392 3.85328 7.80917 4.53378 5.14824C8.74117 9.45176 14.4495 12.0447 20.4877 12.3376C21.353 12.3917 22.0024 11.5704 21.8124 10.7386C20.992 7.14829 22.9782 4.63209 25.1113 3.47251C27.2219 2.32165 30.6106 1.96244 33.2083 4.71405C33.9803 5.53534 36.5849 5.56673 37.9096 5.2546C37.3155 6.38454 36.4018 7.45694 35.5469 8.06027C35.1824 8.31834 34.9734 8.7473 34.9959 9.19544C35.274 14.9236 33.1599 20.6186 29.1961 24.8193C25.2028 29.0513 19.6811 31.3827 13.6446 31.3827C11.2438 31.3827 8.88971 30.9886 6.66511 30.2283C9.32495 29.7087 11.8518 28.5718 13.997 26.9048Z" fill="black" fill-opacity="0.5"/>
</svg>
