<svg xmlns="http://www.w3.org/2000/svg" width="46" height="29" fill="none" viewBox="0 0 46 29"><path fill="#000" fill-opacity=".5" d="M45.0931 0.0307169L36.1003 0.00504297C36.0985 0.331012 36.0976 0.721624 36.0925 0.977447C36.8566 0.995327 38.8118 1.35431 39.4248 2.96122L30.8109 22.8118C30.3889 21.8266 26.383 12.942 25.9256 11.7995L30.0914 3.17212C30.9514 1.85953 32.5963 1.01321 34.1864 0.951773L34.1818 0.0495141L25.5303 0.0417201C25.5096 0.270494 25.5307 0.751424 25.499 0.990284C27.9396 1.0563 28.8121 1.60188 28.2271 3.05704C27.2619 5.24667 25.2378 9.39486 24.8419 10.1518C23.604 7.56834 22.8169 5.57998 21.4692 2.78701C20.8879 1.49276 22.1713 0.988908 23.5287 0.951314V0.0430956L13.5092 0.0123779C13.5165 0.43875 13.4995 0.677611 13.4995 0.989367C14.8959 1.01046 16.7083 1.15946 17.4311 2.37347C18.3894 4.23622 21.584 11.6317 22.5506 13.6123C21.3177 15.9747 18.3228 21.5625 17.2497 23.6586C15.7124 20.2522 10.0258 6.838 8.4186 3.37568C7.81982 1.90034 10.1323 1.04805 11.4704 0.985699L11.4791 0.000916426L0.0820312 0C0.0843272 0.296168 0.0944293 0.783974 0.0953477 1.00266C1.94358 0.985699 4.64499 4.01615 5.41642 5.90044C8.74279 13.6077 12.1752 21.27 15.4855 28.9837C15.4864 28.997 16.5214 29.0107 16.5329 28.9874C18.6989 24.5618 21.23 19.9111 23.5153 15.4351L29.2809 28.9942C29.2832 28.9961 30.2369 29.0016 30.242 28.9974C33.8981 20.6552 39.3762 7.85396 41.1679 3.81259C41.8971 2.08556 43.1172 1.03246 45.0908 0.972862L45.1055 0.0761045L45.0931 0.0307169Z"/></svg>